<?xml version="1.0" standalone="no"?>
<!DOCTYPE svg PUBLIC "-//W3C//DTD SVG 20010904//EN"
 "http://www.w3.org/TR/2001/REC-SVG-20010904/DTD/svg10.dtd">
<svg version="1.0" xmlns="http://www.w3.org/2000/svg"
 width="512.000000pt" height="512.000000pt" viewBox="0 0 512.000000 512.000000"
 preserveAspectRatio="xMidYMid meet">
<metadata>
Created by potrace 1.14, written by Peter Selinger 2001-2017
</metadata>
<g transform="translate(0.000000,512.000000) scale(0.100000,-0.100000)"
fill="#000000" stroke="none">
<path d="M970 4589 c-167 -34 -291 -88 -425 -184 -203 -146 -366 -376 -454
-645 -32 -99 -66 -248 -79 -347 -14 -116 -6 -473 13 -543 2 -8 6 -31 9 -50 3
-19 8 -46 11 -60 3 -14 7 -37 10 -52 3 -15 21 -80 41 -145 162 -535 493 -967
925 -1206 127 -70 326 -139 448 -154 110 -14 284 -9 389 11 19 4 27 -5 56 -62
173 -341 501 -559 944 -627 130 -20 418 -13 557 14 310 59 578 166 834 335
428 282 743 708 835 1126 9 41 19 86 22 100 14 60 12 298 -2 380 -63 361 -284
650 -624 814 -70 35 -205 82 -260 92 -14 3 -41 9 -60 14 -19 5 -60 12 -90 15
-30 4 -68 8 -85 10 -101 14 -380 2 -480 -20 -11 -3 -31 -7 -45 -9 -109 -19
-286 -73 -415 -126 -78 -33 -258 -123 -282 -142 -12 -10 -22 0 -28 29 -8 46
-42 148 -80 248 -217 564 -646 1002 -1125 1149 -185 57 -394 70 -560 35z m357
-294 c434 -83 836 -461 1043 -983 42 -107 59 -163 90 -297 l19 -79 -124 -121
c-139 -136 -203 -211 -287 -338 l-58 -89 -24 55 c-96 218 -264 416 -490 577
-256 183 -390 370 -463 649 -24 90 -26 113 -27 358 l-2 263 40 8 c62 13 205
12 283 -3z m-621 -338 c1 -216 14 -304 69 -471 18 -57 49 -134 68 -172 96
-190 267 -389 437 -509 248 -173 368 -317 454 -542 63 -167 73 -256 67 -603
-1 -58 0 -115 3 -127 6 -28 -19 -35 -149 -38 -207 -6 -415 63 -615 204 -159
112 -316 277 -427 448 -29 46 -53 85 -53 87 0 2 -15 31 -34 64 -95 169 -191
475 -214 681 -13 122 -7 389 12 486 49 258 155 474 304 618 39 37 72 67 74 67
1 0 3 -87 4 -193z m3202 -828 c140 -4 324 -49 447 -109 89 -43 209 -126 201
-139 -3 -5 -27 -12 -53 -15 -425 -59 -693 -191 -947 -467 -89 -96 -153 -198
-256 -409 -159 -324 -442 -535 -795 -594 -11 -2 -91 -16 -179 -30 -105 -18
-162 -24 -169 -17 -5 5 -16 34 -24 63 -8 29 -17 62 -20 73 -13 47 -12 273 2
340 77 389 348 757 745 1010 202 130 481 241 680 271 19 3 41 7 48 9 7 3 61 8
120 11 59 4 109 8 111 10 2 2 7 2 10 -1 4 -2 39 -5 79 -6z m883 -622 c28 -102
34 -268 13 -383 -69 -372 -334 -742 -717 -997 -298 -199 -658 -314 -982 -315
-187 0 -352 29 -493 87 -68 28 -189 101 -237 143 l-26 23 128 22 c70 12 142
24 158 27 54 9 215 65 293 102 67 32 198 108 212 124 3 3 23 18 45 34 72 53
219 210 278 299 32 48 92 154 132 235 129 261 267 411 487 530 61 33 210 87
267 97 19 3 37 7 40 9 3 2 35 7 71 11 36 4 68 9 71 11 6 3 32 8 173 29 16 2
31 7 34 10 13 13 32 -22 53 -98z"/>
</g>
</svg>
